<svg width="24" height="24" viewBox="0 0 24 24" fill="none" xmlns="http://www.w3.org/2000/svg">
<g clip-path="url(#clip0)">
<path d="M23 7L16 12L23 17V7Z" stroke="black" stroke-width="2" stroke-linecap="round" stroke-linejoin="round"/>
<path d="M14 5H3C1.89543 5 1 5.89543 1 7V17C1 18.1046 1.89543 19 3 19H14C15.1046 19 16 18.1046 16 17V7C16 5.89543 15.1046 5 14 5Z" stroke="black" stroke-width="2" stroke-linecap="round" stroke-linejoin="round"/>
<path d="M7.00409 20.7491C7.08824 20.7491 7.17177 20.7431 7.25409 20.7312V21.995C7.25409 22.4591 7.43847 22.9043 7.76665 23.2325C8.09484 23.5606 8.53996 23.745 9.00409 23.745C9.46822 23.745 9.91334 23.5606 10.2415 23.2325C10.5697 22.9043 10.7541 22.4591 10.7541 21.995V20.7329C10.8367 20.7448 10.9202 20.7508 11.0041 20.7508C11.2351 20.7508 11.4638 20.7051 11.6771 20.6162C11.8894 20.5278 12.0822 20.3983 12.2444 20.2353C12.4074 20.0731 12.5369 19.8803 12.6253 19.668C12.7141 19.4548 12.7599 19.226 12.7599 18.995C12.7599 18.764 12.7141 18.5353 12.6253 18.322C12.5367 18.1093 12.4069 17.9162 12.2435 17.7538C12.2431 17.7533 12.2427 17.7529 12.2422 17.7525L10.2444 15.7547L10.2386 15.7489L10.2327 15.7432C10.0681 15.5856 9.87428 15.4617 9.66219 15.3785C9.24018 15.2072 8.768 15.2072 8.34599 15.3785C8.1339 15.4617 7.94009 15.5856 7.77546 15.7432L7.76955 15.7489L7.76376 15.7547L5.76376 17.7547C5.4348 18.0836 5.25 18.5298 5.25 18.995C5.25 19.4602 5.4348 19.9064 5.76376 20.2353C6.09272 20.5643 6.53888 20.7491 7.00409 20.7491Z" fill="black" stroke="white" stroke-width="1.5"/>
</g>
<defs>
<clipPath id="clip0">
<rect width="24" height="24" fill="white"/>
</clipPath>
</defs>
</svg>
