<svg width="22" height="21" viewBox="0 0 22 21" fill="none" xmlns="http://www.w3.org/2000/svg">
<path d="M17 11.995C16.7348 11.995 16.4804 12.1004 16.2929 12.2879C16.1054 12.4754 16 12.7298 16 12.995V13.375L14.52 11.895C13.9974 11.3766 13.2911 11.0856 12.555 11.0856C11.8189 11.0856 11.1126 11.3766 10.59 11.895L9.89 12.595L7.41 10.115C6.88012 9.61062 6.17657 9.3293 5.445 9.3293C4.71343 9.3293 4.00988 9.61062 3.48 10.115L2 11.595V5.99501C2 5.7298 2.10536 5.47544 2.29289 5.28791C2.48043 5.10037 2.73478 4.99501 3 4.99501H10C10.2652 4.99501 10.5196 4.88966 10.7071 4.70212C10.8946 4.51458 11 4.26023 11 3.99501C11 3.7298 10.8946 3.47544 10.7071 3.28791C10.5196 3.10037 10.2652 2.99501 10 2.99501H3C2.20435 2.99501 1.44129 3.31108 0.87868 3.87369C0.316071 4.4363 0 5.19936 0 5.99501V17.995C0 18.7907 0.316071 19.5537 0.87868 20.1163C1.44129 20.6789 2.20435 20.995 3 20.995H15C15.7956 20.995 16.5587 20.6789 17.1213 20.1163C17.6839 19.5537 18 18.7907 18 17.995V12.995C18 12.7298 17.8946 12.4754 17.7071 12.2879C17.5196 12.1004 17.2652 11.995 17 11.995ZM3 18.995C2.73478 18.995 2.48043 18.8897 2.29289 18.7021C2.10536 18.5146 2 18.2602 2 17.995V14.425L4.9 11.525C5.04691 11.385 5.24206 11.3069 5.445 11.3069C5.64794 11.3069 5.84309 11.385 5.99 11.525L9.16 14.695L13.46 18.995H3ZM16 17.995C15.9986 18.1864 15.9354 18.3723 15.82 18.525L11.31 13.995L12.01 13.295C12.0817 13.2218 12.1673 13.1637 12.2617 13.124C12.3561 13.0843 12.4576 13.0639 12.56 13.0639C12.6624 13.0639 12.7639 13.0843 12.8583 13.124C12.9527 13.1637 13.0383 13.2218 13.11 13.295L16 16.205V17.995ZM20.71 3.28501L17.71 0.285013C17.6149 0.193973 17.5028 0.122608 17.38 0.0750135C17.1365 -0.0250045 16.8635 -0.0250045 16.62 0.0750135C16.4972 0.122608 16.3851 0.193973 16.29 0.285013L13.29 3.28501C13.1968 3.37825 13.1228 3.48894 13.0723 3.61076C13.0219 3.73259 12.9959 3.86315 12.9959 3.99501C12.9959 4.26132 13.1017 4.51671 13.29 4.70501C13.4783 4.89332 13.7337 4.9991 14 4.9991C14.2663 4.9991 14.5217 4.89332 14.71 4.70501L16 3.40501V8.99501C16 9.26023 16.1054 9.51458 16.2929 9.70212C16.4804 9.88966 16.7348 9.99501 17 9.99501C17.2652 9.99501 17.5196 9.88966 17.7071 9.70212C17.8946 9.51458 18 9.26023 18 8.99501V3.40501L19.29 4.70501C19.383 4.79874 19.4936 4.87314 19.6154 4.9239C19.7373 4.97467 19.868 5.00081 20 5.00081C20.132 5.00081 20.2627 4.97467 20.3846 4.9239C20.5064 4.87314 20.617 4.79874 20.71 4.70501C20.8037 4.61205 20.8781 4.50145 20.9289 4.37959C20.9797 4.25773 21.0058 4.12703 21.0058 3.99501C21.0058 3.863 20.9797 3.7323 20.9289 3.61044C20.8781 3.48858 20.8037 3.37798 20.71 3.28501Z" fill="black"/>
</svg>
