<svg width="24" height="24" viewBox="0 0 24 24" fill="none" xmlns="http://www.w3.org/2000/svg">
<path d="M9.99996 17.5501L8.22996 19.2701C7.76583 19.7342 7.13634 19.995 6.47996 19.995C5.82358 19.995 5.19409 19.7342 4.72996 19.2701C4.26583 18.806 4.00508 18.1765 4.00508 17.5201C4.00508 16.8637 4.26583 16.2342 4.72996 15.7701L9.26996 11.2201C9.71557 10.773 10.316 10.5144 10.947 10.4976C11.578 10.4809 12.1913 10.7073 12.66 11.1301L12.78 11.2301C12.9696 11.4157 13.2252 11.5185 13.4906 11.5157C13.7559 11.5128 14.0093 11.4047 14.195 11.2151C14.3806 11.0255 14.4833 10.7699 14.4805 10.5045C14.4777 10.2391 14.3696 9.98575 14.18 9.80009C14.1235 9.72712 14.0634 9.65703 14 9.59009C13.1463 8.84741 12.0423 8.45694 10.9115 8.49779C9.78076 8.53864 8.70779 9.00775 7.90996 9.81009L3.30996 14.3601C2.52831 15.2109 2.10558 16.3308 2.13003 17.4858C2.15449 18.6409 2.62424 19.7419 3.44119 20.5589C4.25814 21.3758 5.35912 21.8456 6.51421 21.87C7.66929 21.8945 8.78916 21.4717 9.63996 20.6901L11.37 19.0001C11.5408 18.8137 11.6347 18.5696 11.6328 18.3168C11.6309 18.064 11.5333 17.8214 11.3597 17.6376C11.1861 17.4539 10.9493 17.3427 10.697 17.3264C10.4448 17.3102 10.1957 17.3901 9.99996 17.5501ZM20.69 3.31009C19.8487 2.4741 18.7109 2.00488 17.525 2.00488C16.339 2.00488 15.2012 2.4741 14.36 3.31009L12.63 5.00009C12.4591 5.18644 12.3652 5.43057 12.3672 5.68336C12.3691 5.93615 12.4666 6.17883 12.6402 6.36258C12.8139 6.54633 13.0506 6.65751 13.3029 6.67375C13.5552 6.68998 13.8042 6.61007 14 6.45009L15.73 4.73009C16.1941 4.26597 16.8236 4.00522 17.48 4.00522C18.1363 4.00522 18.7658 4.26597 19.23 4.73009C19.6941 5.19422 19.9548 5.82372 19.9548 6.48009C19.9548 7.13647 19.6941 7.76596 19.23 8.23009L14.69 12.7801C14.2443 13.2272 13.6439 13.4858 13.0129 13.5026C12.382 13.5193 11.7687 13.2929 11.3 12.8701L11.18 12.7701C10.9903 12.5844 10.7347 12.4817 10.4694 12.4845C10.204 12.4874 9.95061 12.5955 9.76496 12.7851C9.57931 12.9747 9.47659 13.2303 9.4794 13.4957C9.48221 13.7611 9.59033 14.0144 9.77996 14.2001C9.8526 14.2744 9.92939 14.3445 10.01 14.4101C10.8646 15.1505 11.9682 15.5395 13.0983 15.4987C14.2283 15.4579 15.3009 14.9903 16.1 14.1901L20.65 9.64009C21.4913 8.80417 21.9677 7.66932 21.9752 6.48334C21.9827 5.29736 21.5207 4.15659 20.69 3.31009Z" fill="black"/>
</svg>
