<svg width="34" height="34" viewBox="0 0 34 34" fill="none" xmlns="http://www.w3.org/2000/svg">
<g clip-path="url(#clip0)">
<path d="M14.1716 15.5858L15.5858 17L14.1716 18.4143C13.984 18.6018 13.8787 18.8561 13.8787 19.1214C13.8787 19.3866 13.984 19.6409 14.1716 19.8285C14.3591 20.016 14.6135 20.1214 14.8787 20.1214C15.1439 20.1214 15.3982 20.016 15.5858 19.8285L17 18.4143L18.4142 19.8285C18.6018 20.016 18.8561 20.1214 19.1213 20.1214C19.3865 20.1214 19.6409 20.016 19.8284 19.8285C20.016 19.6409 20.1213 19.3866 20.1213 19.1214C20.1213 18.8561 20.016 18.6018 19.8284 18.4143L18.4142 17L19.8284 15.5858C20.016 15.3983 20.1213 15.1439 20.1213 14.8787C20.1213 14.6135 20.016 14.3592 19.8284 14.1716C19.6409 13.9841 19.3865 13.8787 19.1213 13.8787C18.8561 13.8787 18.6017 13.9841 18.4142 14.1716L17 15.5858L15.5858 14.1716C15.3983 13.9841 15.1439 13.8787 14.8787 13.8787C14.6135 13.8787 14.3591 13.9841 14.1716 14.1716C13.984 14.3592 13.8787 14.6135 13.8787 14.8787C13.8787 15.1439 13.984 15.3983 14.1716 15.5858ZM30.435 16.2929L17.7071 3.56502C17.5196 3.37748 17.2652 3.27212 17 3.27212C16.7348 3.27212 16.4804 3.37748 16.2929 3.56502L3.56497 16.2929C3.37743 16.4805 3.27208 16.7348 3.27208 17C3.27208 17.2653 3.37744 17.5196 3.56497 17.7072L16.2929 30.4351C16.4804 30.6226 16.7348 30.728 17 30.728C17.2652 30.728 17.5196 30.6226 17.7071 30.4351L30.435 17.7072C30.6226 17.5196 30.7279 17.2653 30.7279 17C30.7279 16.7348 30.6226 16.4805 30.435 16.2929ZM17 28.3138L5.68629 17L17 5.68634L28.3137 17L17 28.3138Z" fill="black"/>
</g>
<defs>
<clipPath id="clip0">
<rect width="24" height="24" fill="white" transform="translate(17 0.0292969) rotate(45)"/>
</clipPath>
</defs>
</svg>
