<svg width="18" height="23" viewBox="0 0 18 23" fill="none" xmlns="http://www.w3.org/2000/svg">
<path d="M16.2929 9.29289C16.4804 9.10536 16.7348 9 17 9C17.2652 9 17.5196 9.10536 17.7071 9.29289C17.8946 9.48043 18 9.73478 18 10V15C18 15.7956 17.6839 16.5587 17.1213 17.1213C16.5587 17.6839 15.7956 18 15 18H3C2.20435 18 1.44129 17.6839 0.87868 17.1213C0.316071 16.5587 0 15.7956 0 15V3C0 2.20435 0.316071 1.44129 0.87868 0.87868C1.44129 0.316071 2.20435 0 3 0H10C10.2652 0 10.5196 0.105357 10.7071 0.292893C10.8946 0.48043 11 0.734784 11 1C11 1.26522 10.8946 1.51957 10.7071 1.70711C10.5196 1.89464 10.2652 2 10 2H3C2.73478 2 2.48043 2.10536 2.29289 2.29289C2.10536 2.48043 2 2.73478 2 3V8.6V11.43V15C2 15.2652 2.10536 15.5196 2.29289 15.7071C2.48043 15.8946 2.73478 16 3 16H13.46C13.46 16 13.5 16.0049 14.5 16.0049C15.5 16.0049 15.82 15.53 15.82 15.53C15.9354 15.3773 15.9986 15.1914 16 15V13.21V10.38V10C16 9.73478 16.1054 9.48043 16.2929 9.29289Z" fill="black"/>
<path d="M17.7308 6.30492C17.8145 6.38758 17.8836 6.4821 17.9354 6.58492C17.9872 6.68774 18 7.00492 18 7.00492C18 7.50492 18 8.00492 17.4615 8.00492H15.8462H12.6154C11.7585 8.00492 10.9368 7.68885 10.3309 7.12624C9.725 6.56363 9.38461 5.80057 9.38461 5.00492V2.00492H4.00001L4 0.00491949L9.5 0.00488281H10.5L10.9677 0.114919C11.0784 0.163 11.1802 0.227136 11.2692 0.304919L17.7308 6.30492Z" fill="black"/>
<path d="M11.5385 3.41488L14.3277 6.00488H12.6154C12.3298 6.00488 12.0558 5.89953 11.8539 5.71199C11.6519 5.52445 11.5385 5.2701 11.5385 5.00488V3.41488Z" fill="white"/>
<path d="M7.00409 18.754C7.08824 18.754 7.17177 18.7479 7.25409 18.7361V19.9999C7.25409 20.464 7.43847 20.9091 7.76665 21.2373C8.09484 21.5655 8.53996 21.7499 9.00409 21.7499C9.46822 21.7499 9.91334 21.5655 10.2415 21.2373C10.5697 20.9091 10.7541 20.464 10.7541 19.9999V18.7377C10.8367 18.7497 10.9202 18.7557 11.0041 18.7557C11.2351 18.7557 11.4638 18.71 11.6771 18.6211C11.8894 18.5327 12.0822 18.4032 12.2444 18.2402C12.4074 18.078 12.5369 17.8852 12.6253 17.6729C12.7141 17.4597 12.7599 17.2309 12.7599 16.9999C12.7599 16.7689 12.7141 16.5401 12.6253 16.3269C12.5367 16.1142 12.4069 15.9211 12.2435 15.7586C12.2431 15.7582 12.2427 15.7578 12.2422 15.7574L10.2444 13.7596L10.2386 13.7538L10.2327 13.7481C10.0681 13.5905 9.87428 13.4666 9.66219 13.3833C9.24018 13.2121 8.768 13.2121 8.34599 13.3833C8.1339 13.4666 7.94009 13.5905 7.77546 13.7481L7.76955 13.7538L7.76376 13.7596L5.76376 15.7596C5.4348 16.0885 5.25 16.5347 5.25 16.9999C5.25 17.4651 5.4348 17.9113 5.76376 18.2402C6.09272 18.5692 6.53888 18.754 7.00409 18.754Z" fill="black" stroke="white" stroke-width="1.5"/>
</svg>
