<svg width="24" height="24" viewBox="0 0 24 24" fill="none" xmlns="http://www.w3.org/2000/svg">
<path d="M14.4101 16.8673C13.7279 17.3676 12.8827 17.5934 12.0419 17.5001C11.2022 17.5936 10.358 17.3681 9.67671 16.8683C9.48892 16.6818 9.23491 16.5773 8.97026 16.5777C8.70562 16.5781 8.45191 16.6833 8.26465 16.8703C8.0774 17.0573 7.97185 17.3108 7.97111 17.5755C7.97037 17.8401 8.0745 18.0943 8.26071 18.2823C8.77778 18.7274 9.37874 19.0645 10.0282 19.2736C10.6776 19.4828 11.3623 19.5598 12.0419 19.5001C12.7216 19.5595 13.4064 19.4825 14.0559 19.2735C14.7054 19.0646 15.3066 18.7279 15.8242 18.2833C15.9175 18.1905 15.9916 18.0803 16.0422 17.9588C16.0929 17.8374 16.1191 17.7071 16.1193 17.5755C16.1195 17.4439 16.0938 17.3136 16.0436 17.192C15.9934 17.0703 15.9197 16.9598 15.8267 16.8667C15.7337 16.7736 15.6233 16.6997 15.5017 16.6494C15.3802 16.599 15.2499 16.5731 15.1183 16.5732C14.9867 16.5732 14.8564 16.5992 14.7349 16.6497C14.6134 16.7002 14.503 16.7741 14.4101 16.8673L14.4101 16.8673ZM9.20044 15.0017C9.39822 15.0017 9.59154 14.943 9.75596 14.8331C9.92037 14.7231 10.0485 14.5669 10.1241 14.3842C10.1998 14.2014 10.2195 14.0003 10.1809 13.8064C10.1422 13.6124 10.0469 13.4342 9.90703 13.2944C9.76714 13.1546 9.58893 13.0594 9.39493 13.0209C9.20094 12.9824 8.99988 13.0022 8.81718 13.078C8.63448 13.1537 8.47834 13.2819 8.3685 13.4464C8.25867 13.6109 8.20008 13.8043 8.20014 14.0021C8.20043 14.2672 8.30593 14.5214 8.49348 14.7088C8.68102 14.8963 8.93529 15.0016 9.20044 15.0017ZM15.2004 13.0017C15.0027 13.0017 14.8093 13.0603 14.6448 13.1701C14.4803 13.2799 14.3521 13.4361 14.2764 13.6188C14.2006 13.8015 14.1808 14.0026 14.2193 14.1965C14.2578 14.3905 14.353 14.5688 14.4928 14.7086C14.6326 14.8485 14.8108 14.9438 15.0048 14.9825C15.1987 15.0211 15.3998 15.0014 15.5825 14.9257C15.7653 14.8501 15.9215 14.722 16.0314 14.5576C16.1414 14.3932 16.2001 14.1998 16.2001 14.0021C16.1999 13.7369 16.0945 13.4828 15.9071 13.2953C15.7197 13.1077 15.4655 13.0022 15.2004 13.0017ZM22.9999 11.7804C23.0018 10.9873 22.7536 10.2138 22.2906 9.56994C21.8276 8.92603 21.1734 8.44445 20.4211 8.19366C19.6687 7.94286 18.8564 7.93561 18.0997 8.17295C17.343 8.41028 16.6803 8.88012 16.2059 9.51566C15.2064 9.26121 14.1853 9.101 13.1559 9.03715L14.0117 3.33215L16.0992 4.04199C16.1087 4.83612 16.4331 5.59399 17.001 6.14914C17.5689 6.7043 18.3339 7.01133 19.1281 7.00281C19.9222 6.99429 20.6805 6.6709 21.2364 6.10368C21.7922 5.53647 22.1002 4.77181 22.0927 3.97766V3.95518C22.0736 3.1697 21.75 2.42238 21.1903 1.87101C20.6305 1.31963 19.8784 1.00735 19.0927 1.0001C18.6419 1.00347 18.1978 1.10918 17.7938 1.30926C17.3898 1.50934 17.0365 1.79856 16.7606 2.1551L13.5224 1.05381C13.3838 1.00638 13.2365 0.990016 13.0909 1.00586C12.9452 1.02171 12.8049 1.06939 12.6797 1.14552C12.5546 1.22165 12.4477 1.32437 12.3667 1.4464C12.2857 1.56843 12.2325 1.70678 12.2109 1.85166L11.1344 9.0271C10.0072 9.07645 8.88802 9.24015 7.79394 9.51566C7.21461 8.73423 6.35549 8.20716 5.39638 8.04476C4.43727 7.88237 3.45253 8.09724 2.64824 8.6444C1.84396 9.19156 1.28248 10.0286 1.08132 10.9803C0.880167 11.9321 1.05492 12.9247 1.56902 13.7505C1.20055 14.4435 1.00529 15.2153 0.999939 16.0001C0.999939 19.9249 5.83194 23.0001 11.9999 23.0001C18.1679 23.0001 22.9999 19.9249 22.9999 16.0001C22.9946 15.2156 22.7995 14.444 22.4313 13.7512C22.7987 13.1592 22.9955 12.4771 22.9999 11.7804ZM19.0927 3.0001C19.2905 3.0001 19.4838 3.05875 19.6483 3.16863C19.8127 3.27851 19.9409 3.43469 20.0166 3.61742C20.0923 3.80014 20.1121 4.00121 20.0735 4.19519C20.0349 4.38917 19.9397 4.56735 19.7998 4.70721C19.66 4.84706 19.4818 4.9423 19.2878 4.98089C19.0938 5.01947 18.8928 4.99967 18.71 4.92398C18.5273 4.84829 18.3711 4.72012 18.2612 4.55567C18.1514 4.39122 18.0927 4.19788 18.0927 4.0001C18.097 3.73623 18.2038 3.48437 18.3904 3.29776C18.577 3.11114 18.8288 3.00441 19.0927 3.0001ZM4.78021 10.0001C5.09099 10.0039 5.39521 10.09 5.66193 10.2496C4.69668 10.6647 3.80304 11.2296 3.01404 11.9235C3.01004 11.8757 2.99994 11.8285 2.99994 11.7804C3.00054 11.3084 3.1883 10.8559 3.52203 10.5222C3.85577 10.1885 4.30824 10.0007 4.78021 10.0001ZM11.9999 21.0001C7.12103 21.0001 2.99994 18.7101 2.99994 16.0001C2.99994 13.2901 7.12103 11.0001 11.9999 11.0001C16.8788 11.0001 20.9999 13.2901 20.9999 16.0001C20.9999 18.7101 16.8788 21.0001 11.9999 21.0001ZM20.9858 11.9236C20.1968 11.2296 19.3032 10.6647 18.3379 10.2496C18.6047 10.09 18.9089 10.004 19.2197 10.0001C19.6916 10.0007 20.1441 10.1885 20.4778 10.5222C20.8116 10.8559 20.9993 11.3084 20.9999 11.7804C20.9999 11.8285 20.9899 11.8757 20.9858 11.9236Z" fill="black"/>
</svg>
